<?xml version="1.0" encoding="UTF-8" standalone="no"?>
<svg xmlns:xlink="http://www.w3.org/1999/xlink" height="51.25px" width="45.25px" xmlns="http://www.w3.org/2000/svg">
  <g transform="matrix(1.0, 0.0, 0.0, 1.0, 0.0, 0.0)">
    <path d="M45.25 25.0 Q43.5 27.75 41.3 30.1 38.3 33.25 34.55 35.7 L23.0 43.15 13.9 48.95 Q7.25 53.15 1.25 49.75 0.4 45.7 0.5 40.75 L0.7 21.25 Q0.6 11.4 1.25 1.75 L0.0 1.0 0.75 0.5 1.75 0.0 10.0 0.5 10.75 1.5 14.65 3.75 Q19.75 6.7 24.25 10.75 L25.25 10.75 27.75 12.0 29.25 14.25 Q33.3 16.5 37.5 18.0 L38.55 18.7 Q40.8 20.2 43.25 21.0 L44.0 21.0 Q44.4 20.9 44.75 21.25 L45.0 22.0 45.25 25.0" fill="#ff0000" fill-rule="evenodd" stroke="none"/>
  </g>
</svg>
