<?xml version="1.0" encoding="UTF-8" standalone="no"?>
<svg xmlns:xlink="http://www.w3.org/1999/xlink" height="17.0px" width="15.0px" xmlns="http://www.w3.org/2000/svg">
  <g transform="matrix(1.0, 0.0, 0.0, 1.0, -158.0, -4.5)">
    <path d="M173.0 7.15 L173.0 7.4 173.0 7.15 M163.1 6.45 L162.5 6.5 162.75 6.75 163.0 7.5 Q166.9 8.6 169.75 10.8 L170.2 11.1 172.0 11.5 Q172.85 13.0 173.0 11.35 L173.0 13.5 172.2 14.3 172.1 14.35 171.6 15.25 171.0 15.5 Q170.0 15.5 169.3 15.95 L162.0 20.5 Q159.25 21.15 159.4 21.5 L158.0 21.5 158.0 4.5 160.1 4.5 160.1 5.35 160.2 5.35 160.0 5.5 161.25 5.5 161.25 5.85 163.1 6.45" fill="#ff0000" fill-rule="evenodd" stroke="none"/>
  </g>
</svg>
