<?xml version="1.0" encoding="UTF-8" standalone="no"?>
<svg xmlns:xlink="http://www.w3.org/1999/xlink" height="37.75px" width="129.05px" xmlns="http://www.w3.org/2000/svg">
  <g transform="matrix(1.0, 0.0, 0.0, 1.0, 0.0, 0.0)">
    <path d="M124.05 5.55 L124.8 11.3 126.8 12.3 127.05 13.55 127.7 14.85 127.8 15.3 127.8 15.8 Q128.7 16.9 128.85 18.85 L129.05 24.05 129.05 25.3 Q127.25 28.75 123.2 31.75 121.1 33.3 118.55 33.55 110.9 35.65 102.3 35.8 92.65 36.6 82.8 36.3 74.55 35.8 66.3 36.3 L46.8 37.5 Q32.55 37.8 18.3 37.75 8.1 37.75 0.8 31.55 -0.3 25.9 0.1 19.8 0.5 14.4 1.3 9.05 L2.05 8.8 Q3.05 7.3 4.6 5.85 L5.4 5.15 5.8 4.3 7.8 2.55 17.55 2.3 18.3 0.55 37.8 0.5 57.05 0.3 Q66.8 0.0 76.55 0.2 86.25 0.4 95.8 0.05 L111.3 0.55 Q115.55 2.75 120.8 2.8 122.45 3.2 123.3 4.05 123.25 4.8 123.7 5.4 L124.05 5.55" fill="#33ff33" fill-opacity="0.0" fill-rule="evenodd" stroke="none"/>
  </g>
</svg>
