<?xml version="1.0" encoding="UTF-8" standalone="no"?>
<svg xmlns:xlink="http://www.w3.org/1999/xlink" height="35.05px" width="78.0px" xmlns="http://www.w3.org/2000/svg">
  <g transform="matrix(1.0, 0.0, 0.0, 1.0, 0.0, 0.0)">
    <path d="M71.25 3.8 L72.25 4.3 72.75 5.3 73.05 5.5 Q75.1 7.3 76.0 10.05 L76.0 10.3 Q75.85 11.15 76.5 11.05 L76.5 11.3 Q76.9 13.7 78.0 15.55 L77.5 18.05 77.5 18.55 76.95 19.9 Q76.85 26.0 73.3 28.8 L73.25 29.55 72.0 31.3 70.75 32.3 70.25 32.55 69.0 32.55 65.75 33.8 64.75 34.55 41.5 33.55 22.75 34.35 21.0 35.05 19.5 34.85 12.0 34.3 7.75 32.05 Q7.75 31.4 7.2 31.0 L5.75 30.55 5.7 30.3 5.0 29.55 3.5 29.3 1.5 27.05 1.5 26.8 0.0 9.8 1.95 10.95 2.0 9.05 3.25 6.8 4.0 6.3 4.5 4.8 4.7 4.7 Q12.0 1.35 20.9 1.3 L21.0 0.3 39.5 0.05 41.65 1.25 41.95 1.2 Q51.2 -0.15 60.75 0.05 L61.5 1.25 Q64.0 1.1 65.5 2.05 L66.95 2.2 69.75 2.55 71.25 3.8" fill="#339966" fill-opacity="0.0" fill-rule="evenodd" stroke="none"/>
  </g>
</svg>
