<?xml version="1.0" encoding="UTF-8" standalone="no"?>
<svg xmlns:xlink="http://www.w3.org/1999/xlink" height="327.85px" width="757.0px" xmlns="http://www.w3.org/2000/svg">
  <g transform="matrix(1.0, 0.0, 0.0, 1.0, 0.0, 0.0)">
    <path d="M736.0 0.5 L736.0 0.0 Q744.6 1.9 756.0 1.5 L756.0 2.0 756.0 3.0 756.25 3.75 757.0 4.0 Q756.0 6.0 755.55 8.1 737.8 90.3 721.6 173.9 L711.1 228.0 711.0 229.0 711.0 230.0 711.0 231.0 711.0 232.0 Q710.5 232.0 710.25 232.25 710.0 232.5 710.0 233.0 L709.75 233.75 709.0 234.0 Q706.25 251.25 703.0 268.0 L694.5 311.1 692.5 320.9 692.25 321.25 Q692.0 321.5 692.0 322.0 L692.0 323.0 692.0 324.0 Q661.75 326.7 630.85 323.35 L606.0 321.5 605.85 321.45 Q604.5 321.0 603.15 321.45 603.0 321.5 603.0 322.0 383.85 317.85 161.0 322.8 L144.05 323.5 143.85 323.55 Q142.5 324.0 141.15 323.55 141.0 323.5 141.0 323.0 L115.0 324.35 Q97.15 324.6 78.95 326.55 L70.05 327.5 69.75 327.75 Q69.5 328.0 69.25 327.75 L69.0 327.0 Q57.9 276.1 47.6 224.9 30.95 141.6 13.05 60.0 7.2 33.3 1.5 6.1 L1.25 5.75 0.75 5.25 0.25 4.75 0.0 4.0 Q70.35 1.95 140.0 1.95 281.5 2.0 423.0 1.5 L736.0 0.5" fill="#ff0000" fill-rule="evenodd" stroke="none"/>
  </g>
</svg>
