<?xml version="1.0" encoding="UTF-8" standalone="no"?>
<svg xmlns:xlink="http://www.w3.org/1999/xlink" height="17.0px" width="16.0px" xmlns="http://www.w3.org/2000/svg">
  <g transform="matrix(1.0, 0.0, 0.0, 1.0, 0.0, 0.0)">
    <path d="M13.6 0.75 L13.95 0.0 16.0 0.0 16.0 17.0 13.95 17.0 12.9 16.45 Q12.3 16.25 11.75 15.7 L9.5 14.9 8.25 14.15 5.75 12.65 4.8 12.15 4.8 11.9 4.4 11.2 3.9 11.0 3.7 10.85 3.35 10.6 2.8 10.25 1.75 10.05 1.3 10.05 Q0.65 10.05 0.4 9.6 L0.0 9.5 0.0 7.85 0.55 7.85 Q1.9 7.3 2.95 6.1 4.2 5.95 4.45 5.3 L6.0 5.05 6.2 4.25 Q7.75 4.3 8.3 3.35 L9.3 3.2 Q9.4 2.45 10.05 2.2 10.45 1.7 11.65 1.85 L11.7 1.75 Q11.8 1.2 12.15 0.95 L13.55 0.8 13.6 0.75" fill="#ff0000" fill-rule="evenodd" stroke="none"/>
  </g>
</svg>
